# xmcd
# 
# Track frame offsets:
#     150
#     24149
#     48230
#     72562
# 
# Disc length: 1227
# 
# Revision: 0
# Processed by: cddbd v1.5.2PL0 Copyright (c) Steve Scherf et al.
# Submitted via: fre:ac v1.0.17
# 
DISCID=2b04c904
DTITLE=Angel Vivaldi - The Speed of Dark
DYEAR=2009
DGENRE=
TTITLE0=An Angel's Poem On a Grave
TTITLE1=Acid Reign
TTITLE2=Sea of Heartbreak
TTITLE3=The World Burning Around Me
EXTD=
EXTT0=
EXTT1=
EXTT2=
EXTT3=
PLAYORDER=
